<svg width="45" height="45" viewBox="0 0 45 45" fill="none" xmlns="http://www.w3.org/2000/svg">
<path d="M22.2971 10.3862C29.2247 10.3862 34.4692 16.0661 34.4692 22.5644C34.4692 30.101 28.3221 34.7792 22.2727 34.7792C20.2724 34.7792 18.0527 34.2418 16.272 33.1913C15.65 32.8126 15.1255 32.5317 14.4547 32.7516L11.991 33.4845C11.369 33.6799 10.808 33.1913 10.9909 32.5317L11.8081 29.7956C11.9422 29.4169 11.9178 29.0138 11.7227 28.6962C10.6738 26.7663 10.0762 24.6531 10.0762 22.6011C10.0762 16.1761 15.2109 10.3862 22.2971 10.3862ZM27.8709 21.0498C27.0049 21.0498 26.3097 21.746 26.3097 22.6133C26.3097 23.4683 27.0049 24.1768 27.8709 24.1768C28.7368 24.1768 29.432 23.4683 29.432 22.6133C29.432 21.746 28.7368 21.0498 27.8709 21.0498ZM22.2483 21.0498C21.3945 21.0376 20.6871 21.746 20.6871 22.6011C20.6871 23.4683 21.3823 24.1645 22.2483 24.1768C23.1142 24.1768 23.8094 23.4683 23.8094 22.6133C23.8094 21.746 23.1142 21.0498 22.2483 21.0498ZM16.6257 21.0498C15.7597 21.0498 15.0645 21.746 15.0645 22.6133C15.0645 23.4683 15.7719 24.1768 16.6257 24.1768C17.4916 24.1645 18.1868 23.4683 18.1868 22.6133C18.1868 21.746 17.4916 21.0498 16.6257 21.0498Z" fill="#5D7285"/>
</svg>
