<svg width="25" height="25" viewBox="0 0 25 25" fill="none" xmlns="http://www.w3.org/2000/svg">
<path d="M11.458 4.04639H4.16634C3.61381 4.04639 3.0839 4.25955 2.6932 4.63897C2.3025 5.0184 2.08301 5.53301 2.08301 6.0696V20.2321C2.08301 20.7687 2.3025 21.2833 2.6932 21.6627C3.0839 22.0421 3.61381 22.2553 4.16634 22.2553H18.7497C19.3022 22.2553 19.8321 22.0421 20.2228 21.6627C20.6135 21.2833 20.833 20.7687 20.833 20.2321V13.1508" stroke="#525252" stroke-width="2" stroke-linecap="round" stroke-linejoin="round"/>
<path d="M19.2705 2.52892C19.6849 2.12648 20.247 1.90039 20.833 1.90039C21.4191 1.90039 21.9811 2.12648 22.3955 2.52892C22.8099 2.93136 23.0427 3.47719 23.0427 4.04633C23.0427 4.61547 22.8099 5.1613 22.3955 5.56374L12.4997 15.174L8.33301 16.1856L9.37467 12.1392L19.2705 2.52892Z" stroke="#525252" stroke-width="2" stroke-linecap="round" stroke-linejoin="round"/>
</svg>
