<svg width="45" height="45" viewBox="0 0 45 45" fill="none" xmlns="http://www.w3.org/2000/svg">
<path d="M27.5584 10.2998C31.6922 10.2998 34.4692 13.2003 34.4692 17.5161V27.4765C34.4692 31.7923 31.6922 34.6928 27.5572 34.6928H16.9869C12.8532 34.6928 10.0762 31.7923 10.0762 27.4765V17.5161C10.0762 13.2003 12.8532 10.2998 16.9869 10.2998H27.5584ZM28.9034 23.1672C27.596 22.3516 26.5866 23.4969 26.3144 23.8632C26.0519 24.2169 25.8262 24.6071 25.5883 24.9973C25.007 25.9602 24.341 27.0703 23.1881 27.716C21.5128 28.6436 20.241 27.789 19.3261 27.1672C18.9826 26.9356 18.649 26.7166 18.3167 26.5706C17.4974 26.2169 16.7603 26.6197 15.6663 28.0093C15.0923 28.7355 14.5233 29.4555 13.9468 30.1729C13.6022 30.6021 13.6844 31.2642 14.1492 31.5512C14.8912 32.0081 15.7963 32.2535 16.8192 32.2535H27.0981C27.6782 32.2535 28.2595 32.1742 28.8139 31.993C30.0624 31.5852 31.0534 30.6512 31.5709 29.4177C32.0076 28.3806 32.2197 27.1219 31.8113 26.0747C31.6752 25.7273 31.4716 25.4038 31.1858 25.1194C30.4365 24.3755 29.7362 23.6807 28.9034 23.1672ZM18.0025 15.1784C16.321 15.1784 14.9548 16.5465 14.9548 18.2275C14.9548 19.9085 16.321 21.2767 18.0025 21.2767C19.6827 21.2767 21.0502 19.9085 21.0502 18.2275C21.0502 16.5465 19.6827 15.1784 18.0025 15.1784Z" fill="#5D7285"/>
</svg>
