<svg width="45" height="44" viewBox="0 0 45 44" fill="none" xmlns="http://www.w3.org/2000/svg">
<path d="M27.9627 9.76944C29.7172 9.65979 31.4473 10.269 32.751 11.463C33.945 12.7667 34.5542 14.4968 34.4568 16.2635V27.6432C34.5664 29.4099 33.945 31.14 32.7632 32.4437C31.4595 33.6377 29.7172 34.2469 27.9627 34.1372H16.5828C14.8162 34.2469 13.086 33.6377 11.7824 32.4437C10.5883 31.14 9.97912 29.4099 10.0888 27.6432V16.2635C9.97912 14.4968 10.5883 12.7667 11.7824 11.463C13.086 10.269 14.8162 9.65979 16.5828 9.76944H27.9627ZM27.6459 15.3375C26.8905 14.5821 25.6721 14.5821 24.9167 15.3375L24.1004 16.166C23.9785 16.2878 23.9785 16.495 24.1004 16.6168C24.1004 16.6168 24.1243 16.6406 24.1669 16.6829L24.4665 16.9809C24.6399 17.1534 24.8563 17.3688 25.0736 17.5854L25.8103 18.3218C25.9641 18.4763 26.0661 18.5798 26.0742 18.5906C26.2082 18.7368 26.2935 18.9317 26.2935 19.151C26.2935 19.5897 25.9402 19.9552 25.4893 19.9552C25.2822 19.9552 25.0873 19.8699 24.9532 19.7359L22.9185 17.7133C22.8211 17.6159 22.6505 17.6159 22.553 17.7133L16.7412 23.5251C16.3392 23.9271 16.1077 24.4632 16.0955 25.0359L16.0224 27.9234C16.0224 28.0818 16.0711 28.228 16.1808 28.3377C16.2904 28.4474 16.4366 28.5083 16.595 28.5083H19.4583C20.0431 28.5083 20.6036 28.2768 21.03 27.8625L29.2298 19.6384C29.9731 18.883 29.9731 17.6646 29.2298 16.9214L27.6459 15.3375Z" fill="#5D7285"/>
</svg>
