
<svg width="31" height="24" viewBox="0 0 31 24" fill="none" xmlns="http://www.w3.org/2000/svg">
<path d="M27.7539 10.5975V16.378C27.7539 20.2316 26.4631 21.1951 21.2996 21.1951H8.39088C3.22739 21.1951 1.93652 20.2316 1.93652 16.378V6.74383C1.93652 2.89017 3.22739 1.92676 8.39088 1.92676H10.3272C12.2635 1.92676 12.6895 2.35066 13.4253 3.08286L15.3616 5.00968C15.8521 5.49139 16.1361 5.78042 17.427 5.78042H21.2996C26.4631 5.78042 27.7539 6.74383 27.7539 10.5975Z" stroke="#787486" stroke-miterlimit="10"/>
<path d="M10.3271 1.92676H21.945C24.5267 1.92676 25.8176 2.89017 25.8176 4.817V6.14651" stroke="#787486" stroke-miterlimit="10" stroke-linecap="round" stroke-linejoin="round"/>
<path d="M18.0725 14.4512H11.6182" stroke="#787486" stroke-miterlimit="10" stroke-linecap="round" stroke-linejoin="round"/>
</svg>
