<svg width="45" height="45" viewBox="0 0 45 45" fill="none" xmlns="http://www.w3.org/2000/svg">
<path d="M23.147 9.93018C24.0693 9.93018 24.9045 10.4424 25.3656 11.1986C25.59 11.5645 25.7396 12.0158 25.7022 12.4914C25.6772 12.8573 25.7894 13.2232 25.9888 13.5647C26.6245 14.6014 28.033 14.9917 29.1299 14.4063C30.3638 13.6989 31.9219 14.1258 32.6323 15.3332L33.4674 16.7724C34.1904 17.9799 33.7915 19.5288 32.5451 20.224C31.4856 20.846 31.1117 22.2242 31.7474 23.2731C31.9468 23.6025 32.1711 23.883 32.5201 24.0537C32.9564 24.2855 33.2929 24.6514 33.5297 25.0172C33.9909 25.7734 33.9535 26.7004 33.5048 27.5175L32.6323 28.9811C32.1711 29.7617 31.3111 30.2495 30.4261 30.2495C29.9899 30.2495 29.5038 30.1276 29.1049 29.8836C28.7809 29.6763 28.4069 29.6031 28.0081 29.6031C26.7741 29.6031 25.7396 30.6154 25.7022 31.8229C25.7022 33.2255 24.5555 34.3232 23.1221 34.3232H21.4269C19.9811 34.3232 18.8343 33.2255 18.8343 31.8229C18.8094 30.6154 17.7749 29.6031 16.5409 29.6031C16.1296 29.6031 15.7557 29.6763 15.444 29.8836C15.0452 30.1276 14.5466 30.2495 14.1228 30.2495C13.2254 30.2495 12.3654 29.7617 11.9042 28.9811L11.0441 27.5175C10.583 26.7248 10.558 25.7734 11.0192 25.0172C11.2186 24.6514 11.5926 24.2855 12.0164 24.0537C12.3654 23.883 12.5897 23.6025 12.8016 23.2731C13.4248 22.2242 13.0509 20.846 11.9914 20.224C10.7575 19.5288 10.3586 17.9799 11.0691 16.7724L11.9042 15.3332C12.6271 14.1258 14.1727 13.6989 15.4191 14.4063C16.5035 14.9917 17.912 14.6014 18.5477 13.5647C18.7471 13.2232 18.8593 12.8573 18.8343 12.4914C18.8094 12.0158 18.9465 11.5645 19.1833 11.1986C19.6445 10.4424 20.4796 9.95457 21.3895 9.93018H23.147ZM22.2869 18.6873C20.3301 18.6873 18.7471 20.224 18.7471 22.1389C18.7471 24.0537 20.3301 25.5783 22.2869 25.5783C24.2438 25.5783 25.7894 24.0537 25.7894 22.1389C25.7894 20.224 24.2438 18.6873 22.2869 18.6873Z" fill="#5D7285"/>
</svg>
