<svg width="45" height="44" viewBox="0 0 45 44" fill="none" xmlns="http://www.w3.org/2000/svg">
<path d="M27.3843 9.84326C31.1518 9.84326 33.2496 12.0142 33.2496 15.7342V28.3332C33.2496 32.1141 31.1518 34.2363 27.3843 34.2363H17.1624C13.4547 34.2363 11.2959 32.1141 11.2959 28.3332V15.7342C11.2959 12.0142 13.4547 9.84326 17.1624 9.84326H27.3843ZM17.4917 26.6013C17.1258 26.5647 16.7721 26.7354 16.577 27.0525C16.3818 27.3574 16.3818 27.7599 16.577 28.077C16.7721 28.3819 17.1258 28.5649 17.4917 28.5161H27.0538C27.5404 28.4673 27.9075 28.0514 27.9075 27.5648C27.9075 27.0647 27.5404 26.65 27.0538 26.6013H17.4917ZM27.0538 21.0384H17.4917C16.9661 21.0384 16.5404 21.4665 16.5404 21.991C16.5404 22.5154 16.9661 22.9423 17.4917 22.9423H27.0538C27.5782 22.9423 28.0051 22.5154 28.0051 21.991C28.0051 21.4665 27.5782 21.0384 27.0538 21.0384ZM21.1373 15.5146H17.4917V15.5268C16.9661 15.5268 16.5404 15.9537 16.5404 16.4782C16.5404 17.0026 16.9661 17.4295 17.4917 17.4295H21.1373C21.6629 17.4295 22.0898 17.0026 22.0898 16.4647C22.0898 15.9415 21.6629 15.5146 21.1373 15.5146Z" fill="#5D7285"/>
</svg>
