<svg width="26" height="24" viewBox="0 0 26 24" fill="none" xmlns="http://www.w3.org/2000/svg">
<g clip-path="url(#clip0_564_12157)">
<path d="M10.2798 21C8.82496 21 7.45773 20.7373 6.17815 20.212C4.89856 19.6873 3.7855 18.975 2.83896 18.075C1.89241 17.175 1.14324 16.1167 0.591445 14.9C0.0389454 13.6833 -0.237305 12.3833 -0.237305 11C-0.237305 9.61667 0.0389454 8.31667 0.591445 7.1C1.14324 5.88333 1.89241 4.825 2.83896 3.925C3.7855 3.025 4.89856 2.31233 6.17815 1.787C7.45773 1.26233 8.82496 1 10.2798 1C11.7347 1 13.1019 1.26233 14.3815 1.787C15.6611 2.31233 16.7742 3.025 17.7207 3.925C18.6672 4.825 19.4164 5.88333 19.9682 7.1C20.5207 8.31667 20.797 9.61667 20.797 11C20.797 12.3833 20.5207 13.6833 19.9682 14.9C19.4164 16.1167 18.6672 17.175 17.7207 18.075C16.7742 18.975 15.6611 19.6873 14.3815 20.212C13.1019 20.7373 11.7347 21 10.2798 21ZM10.2798 19C12.6287 19 14.6181 18.225 16.2483 16.675C17.8785 15.125 18.6935 13.2333 18.6935 11C18.6935 9.93333 18.4832 8.90833 18.0625 7.925C17.6418 6.94167 17.0371 6.075 16.2483 5.325L10.2798 11V3C7.931 3 5.94151 3.775 4.31135 5.325C2.6812 6.875 1.86612 8.76667 1.86612 11C1.86612 13.2333 2.6812 15.125 4.31135 16.675C5.94151 18.225 7.931 19 10.2798 19Z" fill="#4BA665"/>
</g>
<defs>
<clipPath id="clip0_564_12157">
<rect width="25.2411" height="24" fill="white" transform="translate(0.485352)"/>
</clipPath>
</defs>
</svg>
